<mxfile modified="2024-03-25T18:16:12.361Z" host="app.diagrams.net" agent="Mozilla/5.0 (Windows NT 10.0; Win64; x64) AppleWebKit/537.36 (KHTML, like Gecko) Chrome/122.0.0.0 Safari/537.36" etag="XZ5RHo1bOWeO9MocIagt" version="24.1.0" type="device">
  <diagram id="Ht1M8jgEwFfnCIfOTk4-" name="Page-1">
    <mxGraphModel dx="2240" dy="920" grid="1" gridSize="10" guides="1" tooltips="1" connect="1" arrows="1" fold="1" page="1" pageScale="1" pageWidth="827" pageHeight="1169" math="0" shadow="0">
      <root>
        <mxCell id="0" />
        <mxCell id="1" parent="0" />
        <mxCell id="jZVaUwOg5UY3L9NAnvdq-71" value="AWS Cloud" style="points=[[0,0],[0.25,0],[0.5,0],[0.75,0],[1,0],[1,0.25],[1,0.5],[1,0.75],[1,1],[0.75,1],[0.5,1],[0.25,1],[0,1],[0,0.75],[0,0.5],[0,0.25]];outlineConnect=0;gradientColor=none;html=1;whiteSpace=wrap;fontSize=12;fontStyle=0;shape=mxgraph.aws4.group;grIcon=mxgraph.aws4.group_aws_cloud_alt;strokeColor=#232F3E;fillColor=none;verticalAlign=top;align=left;spacingLeft=30;fontColor=#232F3E;dashed=0;labelBackgroundColor=none;container=1;pointerEvents=0;collapsible=0;recursiveResize=0;" parent="1" vertex="1">
          <mxGeometry x="263" y="110" width="1147" height="830" as="geometry" />
        </mxCell>
        <mxCell id="tJ3CRfDnOJXeIH4iDhJY-17" value="" style="sketch=0;outlineConnect=0;fontColor=#232F3E;gradientColor=none;fillColor=#8C4FFF;strokeColor=none;dashed=0;verticalLabelPosition=bottom;verticalAlign=top;align=center;html=1;fontSize=12;fontStyle=0;aspect=fixed;pointerEvents=1;shape=mxgraph.aws4.glue_data_catalog;" vertex="1" parent="jZVaUwOg5UY3L9NAnvdq-71">
          <mxGeometry x="551.5" y="62" width="49" height="53.08" as="geometry" />
        </mxCell>
        <mxCell id="tJ3CRfDnOJXeIH4iDhJY-20" value="" style="sketch=0;points=[[0,0,0],[0.25,0,0],[0.5,0,0],[0.75,0,0],[1,0,0],[0,1,0],[0.25,1,0],[0.5,1,0],[0.75,1,0],[1,1,0],[0,0.25,0],[0,0.5,0],[0,0.75,0],[1,0.25,0],[1,0.5,0],[1,0.75,0]];outlineConnect=0;fontColor=#232F3E;fillColor=#01A88D;strokeColor=#ffffff;dashed=0;verticalLabelPosition=bottom;verticalAlign=top;align=center;html=1;fontSize=12;fontStyle=0;aspect=fixed;shape=mxgraph.aws4.resourceIcon;resIcon=mxgraph.aws4.datasync;" vertex="1" parent="jZVaUwOg5UY3L9NAnvdq-71">
          <mxGeometry x="75" y="149.5" width="54" height="54" as="geometry" />
        </mxCell>
        <mxCell id="tJ3CRfDnOJXeIH4iDhJY-22" value="" style="sketch=0;points=[[0,0,0],[0.25,0,0],[0.5,0,0],[0.75,0,0],[1,0,0],[0,1,0],[0.25,1,0],[0.5,1,0],[0.75,1,0],[1,1,0],[0,0.25,0],[0,0.5,0],[0,0.75,0],[1,0.25,0],[1,0.5,0],[1,0.75,0]];outlineConnect=0;fontColor=#232F3E;fillColor=#E7157B;strokeColor=#ffffff;dashed=0;verticalLabelPosition=bottom;verticalAlign=top;align=center;html=1;fontSize=12;fontStyle=0;aspect=fixed;shape=mxgraph.aws4.resourceIcon;resIcon=mxgraph.aws4.appflow;" vertex="1" parent="jZVaUwOg5UY3L9NAnvdq-71">
          <mxGeometry x="72" y="459.5" width="60.5" height="60.5" as="geometry" />
        </mxCell>
        <mxCell id="jZVaUwOg5UY3L9NAnvdq-73" value="Amazon S3" style="outlineConnect=0;fontColor=#232F3E;gradientColor=#60A337;gradientDirection=north;fillColor=#277116;strokeColor=#ffffff;dashed=0;verticalLabelPosition=bottom;verticalAlign=top;align=center;html=1;fontSize=12;fontStyle=0;aspect=fixed;shape=mxgraph.aws4.resourceIcon;resIcon=mxgraph.aws4.s3;labelBackgroundColor=none;" parent="jZVaUwOg5UY3L9NAnvdq-71" vertex="1">
          <mxGeometry x="360" y="155" width="48" height="48" as="geometry" />
        </mxCell>
        <mxCell id="tJ3CRfDnOJXeIH4iDhJY-23" value="" style="sketch=0;points=[[0,0,0],[0.25,0,0],[0.5,0,0],[0.75,0,0],[1,0,0],[0,1,0],[0.25,1,0],[0.5,1,0],[0.75,1,0],[1,1,0],[0,0.25,0],[0,0.5,0],[0,0.75,0],[1,0.25,0],[1,0.5,0],[1,0.75,0]];outlineConnect=0;fontColor=#232F3E;fillColor=#01A88D;strokeColor=#ffffff;dashed=0;verticalLabelPosition=bottom;verticalAlign=top;align=center;html=1;fontSize=12;fontStyle=0;aspect=fixed;shape=mxgraph.aws4.resourceIcon;resIcon=mxgraph.aws4.database_migration_service;" vertex="1" parent="jZVaUwOg5UY3L9NAnvdq-71">
          <mxGeometry x="76" y="64" width="53" height="53" as="geometry" />
        </mxCell>
        <mxCell id="tJ3CRfDnOJXeIH4iDhJY-24" value="AWS DMS" style="text;html=1;align=center;verticalAlign=middle;resizable=0;points=[];autosize=1;strokeColor=none;fillColor=none;" vertex="1" parent="jZVaUwOg5UY3L9NAnvdq-71">
          <mxGeometry x="62.5" y="118" width="80" height="30" as="geometry" />
        </mxCell>
        <mxCell id="tJ3CRfDnOJXeIH4iDhJY-25" value="&lt;span style=&quot;color: rgb(0, 0, 0); font-family: Helvetica; font-size: 14px; font-style: normal; font-variant-ligatures: normal; font-variant-caps: normal; font-weight: 700; letter-spacing: normal; orphans: 2; text-align: center; text-indent: 0px; text-transform: none; widows: 2; word-spacing: 0px; -webkit-text-stroke-width: 0px; white-space: nowrap; background-color: rgb(251, 251, 251); text-decoration-thickness: initial; text-decoration-style: initial; text-decoration-color: initial; display: inline !important; float: none;&quot;&gt;Data Ingestion&lt;/span&gt;" style="text;whiteSpace=wrap;html=1;" vertex="1" parent="jZVaUwOg5UY3L9NAnvdq-71">
          <mxGeometry x="49" y="30" width="120" height="40" as="geometry" />
        </mxCell>
        <mxCell id="tJ3CRfDnOJXeIH4iDhJY-27" value="DataSync" style="text;html=1;align=center;verticalAlign=middle;resizable=0;points=[];autosize=1;strokeColor=none;fillColor=none;" vertex="1" parent="jZVaUwOg5UY3L9NAnvdq-71">
          <mxGeometry x="62" y="203.5" width="80" height="30" as="geometry" />
        </mxCell>
        <mxCell id="tJ3CRfDnOJXeIH4iDhJY-34" value="" style="sketch=0;points=[[0,0,0],[0.25,0,0],[0.5,0,0],[0.75,0,0],[1,0,0],[0,1,0],[0.25,1,0],[0.5,1,0],[0.75,1,0],[1,1,0],[0,0.25,0],[0,0.5,0],[0,0.75,0],[1,0.25,0],[1,0.5,0],[1,0.75,0]];outlineConnect=0;fontColor=#232F3E;fillColor=#8C4FFF;strokeColor=#ffffff;dashed=0;verticalLabelPosition=bottom;verticalAlign=top;align=center;html=1;fontSize=12;fontStyle=0;aspect=fixed;shape=mxgraph.aws4.resourceIcon;resIcon=mxgraph.aws4.kinesis;" vertex="1" parent="jZVaUwOg5UY3L9NAnvdq-71">
          <mxGeometry x="76" y="302" width="56" height="56" as="geometry" />
        </mxCell>
        <mxCell id="jZVaUwOg5UY3L9NAnvdq-102" value="2" style="rounded=1;whiteSpace=wrap;html=1;fillColor=#007CBD;strokeColor=none;fontColor=#FFFFFF;fontStyle=1;fontSize=22;labelBackgroundColor=none;" parent="jZVaUwOg5UY3L9NAnvdq-71" vertex="1">
          <mxGeometry x="177" y="26" width="40" height="38" as="geometry" />
        </mxCell>
        <mxCell id="tJ3CRfDnOJXeIH4iDhJY-36" value="AWS Kinesis" style="text;html=1;align=center;verticalAlign=middle;resizable=0;points=[];autosize=1;strokeColor=none;fillColor=none;" vertex="1" parent="jZVaUwOg5UY3L9NAnvdq-71">
          <mxGeometry x="60" y="358" width="90" height="30" as="geometry" />
        </mxCell>
        <mxCell id="tJ3CRfDnOJXeIH4iDhJY-37" value="AppFlow" style="text;html=1;align=center;verticalAlign=middle;resizable=0;points=[];autosize=1;strokeColor=none;fillColor=none;" vertex="1" parent="jZVaUwOg5UY3L9NAnvdq-71">
          <mxGeometry x="67" y="520" width="70" height="30" as="geometry" />
        </mxCell>
        <mxCell id="tJ3CRfDnOJXeIH4iDhJY-45" value="AWS Glue" style="text;html=1;align=center;verticalAlign=middle;resizable=0;points=[];autosize=1;strokeColor=none;fillColor=none;" vertex="1" parent="jZVaUwOg5UY3L9NAnvdq-71">
          <mxGeometry x="62.5" y="623" width="80" height="30" as="geometry" />
        </mxCell>
        <mxCell id="tJ3CRfDnOJXeIH4iDhJY-46" value="" style="endArrow=none;dashed=1;html=1;rounded=0;" edge="1" parent="jZVaUwOg5UY3L9NAnvdq-71">
          <mxGeometry width="50" height="50" relative="1" as="geometry">
            <mxPoint x="27" y="670" as="sourcePoint" />
            <mxPoint x="25.909999999999968" y="31" as="targetPoint" />
          </mxGeometry>
        </mxCell>
        <mxCell id="tJ3CRfDnOJXeIH4iDhJY-47" value="" style="endArrow=none;dashed=1;html=1;rounded=0;" edge="1" parent="jZVaUwOg5UY3L9NAnvdq-71">
          <mxGeometry width="50" height="50" relative="1" as="geometry">
            <mxPoint x="26.909999999999968" y="30" as="sourcePoint" />
            <mxPoint x="176.90999999999997" y="30" as="targetPoint" />
          </mxGeometry>
        </mxCell>
        <mxCell id="tJ3CRfDnOJXeIH4iDhJY-48" value="" style="endArrow=none;dashed=1;html=1;rounded=0;" edge="1" parent="jZVaUwOg5UY3L9NAnvdq-71">
          <mxGeometry width="50" height="50" relative="1" as="geometry">
            <mxPoint x="177" y="670" as="sourcePoint" />
            <mxPoint x="176.90999999999997" y="30" as="targetPoint" />
          </mxGeometry>
        </mxCell>
        <mxCell id="tJ3CRfDnOJXeIH4iDhJY-49" value="" style="endArrow=none;dashed=1;html=1;rounded=0;" edge="1" parent="jZVaUwOg5UY3L9NAnvdq-71">
          <mxGeometry width="50" height="50" relative="1" as="geometry">
            <mxPoint x="26.909999999999968" y="673" as="sourcePoint" />
            <mxPoint x="176.90999999999997" y="673" as="targetPoint" />
          </mxGeometry>
        </mxCell>
        <mxCell id="tJ3CRfDnOJXeIH4iDhJY-50" value="" style="sketch=0;points=[[0,0,0],[0.25,0,0],[0.5,0,0],[0.75,0,0],[1,0,0],[0,1,0],[0.25,1,0],[0.5,1,0],[0.75,1,0],[1,1,0],[0,0.25,0],[0,0.5,0],[0,0.75,0],[1,0.25,0],[1,0.5,0],[1,0.75,0]];outlineConnect=0;fontColor=#232F3E;fillColor=#8C4FFF;strokeColor=#ffffff;dashed=0;verticalLabelPosition=bottom;verticalAlign=top;align=center;html=1;fontSize=12;fontStyle=0;aspect=fixed;shape=mxgraph.aws4.resourceIcon;resIcon=mxgraph.aws4.glue;" vertex="1" parent="jZVaUwOg5UY3L9NAnvdq-71">
          <mxGeometry x="69" y="556" width="68" height="68" as="geometry" />
        </mxCell>
        <mxCell id="tJ3CRfDnOJXeIH4iDhJY-51" value="(ETL Jobs)" style="text;html=1;align=center;verticalAlign=middle;resizable=0;points=[];autosize=1;strokeColor=none;fillColor=none;" vertex="1" parent="jZVaUwOg5UY3L9NAnvdq-71">
          <mxGeometry x="62" y="642" width="80" height="30" as="geometry" />
        </mxCell>
        <mxCell id="tJ3CRfDnOJXeIH4iDhJY-52" value="" style="endArrow=none;dashed=1;html=1;rounded=0;" edge="1" parent="jZVaUwOg5UY3L9NAnvdq-71">
          <mxGeometry width="50" height="50" relative="1" as="geometry">
            <mxPoint x="285" y="250" as="sourcePoint" />
            <mxPoint x="284.81999999999994" y="31" as="targetPoint" />
          </mxGeometry>
        </mxCell>
        <mxCell id="tJ3CRfDnOJXeIH4iDhJY-53" value="" style="endArrow=none;dashed=1;html=1;rounded=0;" edge="1" parent="jZVaUwOg5UY3L9NAnvdq-71">
          <mxGeometry width="50" height="50" relative="1" as="geometry">
            <mxPoint x="285.81999999999994" y="30" as="sourcePoint" />
            <mxPoint x="677" y="30" as="targetPoint" />
          </mxGeometry>
        </mxCell>
        <mxCell id="tJ3CRfDnOJXeIH4iDhJY-54" value="" style="endArrow=none;dashed=1;html=1;rounded=0;" edge="1" parent="jZVaUwOg5UY3L9NAnvdq-71">
          <mxGeometry width="50" height="50" relative="1" as="geometry">
            <mxPoint x="677" y="250" as="sourcePoint" />
            <mxPoint x="676.8199999999999" y="30" as="targetPoint" />
          </mxGeometry>
        </mxCell>
        <mxCell id="tJ3CRfDnOJXeIH4iDhJY-55" value="" style="endArrow=none;dashed=1;html=1;rounded=0;" edge="1" parent="jZVaUwOg5UY3L9NAnvdq-71">
          <mxGeometry width="50" height="50" relative="1" as="geometry">
            <mxPoint x="285.81999999999994" y="252" as="sourcePoint" />
            <mxPoint x="677" y="252" as="targetPoint" />
          </mxGeometry>
        </mxCell>
        <mxCell id="tJ3CRfDnOJXeIH4iDhJY-56" value="" style="sketch=0;points=[[0,0,0],[0.25,0,0],[0.5,0,0],[0.75,0,0],[1,0,0],[0,1,0],[0.25,1,0],[0.5,1,0],[0.75,1,0],[1,1,0],[0,0.25,0],[0,0.5,0],[0,0.75,0],[1,0.25,0],[1,0.5,0],[1,0.75,0]];outlineConnect=0;fontColor=#232F3E;fillColor=#8C4FFF;strokeColor=#ffffff;dashed=0;verticalLabelPosition=bottom;verticalAlign=top;align=center;html=1;fontSize=12;fontStyle=0;aspect=fixed;shape=mxgraph.aws4.resourceIcon;resIcon=mxgraph.aws4.lake_formation;" vertex="1" parent="jZVaUwOg5UY3L9NAnvdq-71">
          <mxGeometry x="359" y="66" width="50" height="50" as="geometry" />
        </mxCell>
        <mxCell id="tJ3CRfDnOJXeIH4iDhJY-57" value="Lake Formation" style="text;html=1;align=center;verticalAlign=middle;resizable=0;points=[];autosize=1;strokeColor=none;fillColor=none;" vertex="1" parent="jZVaUwOg5UY3L9NAnvdq-71">
          <mxGeometry x="327" y="116" width="110" height="30" as="geometry" />
        </mxCell>
        <mxCell id="tJ3CRfDnOJXeIH4iDhJY-58" value="Glue Data Catalog" style="text;html=1;align=center;verticalAlign=middle;resizable=0;points=[];autosize=1;strokeColor=none;fillColor=none;" vertex="1" parent="jZVaUwOg5UY3L9NAnvdq-71">
          <mxGeometry x="515" y="115.08000000000001" width="120" height="30" as="geometry" />
        </mxCell>
        <mxCell id="jZVaUwOg5UY3L9NAnvdq-104" value="5" style="rounded=1;whiteSpace=wrap;html=1;fillColor=#007CBD;strokeColor=none;fontColor=#FFFFFF;fontStyle=1;fontSize=22;labelBackgroundColor=none;" parent="jZVaUwOg5UY3L9NAnvdq-71" vertex="1">
          <mxGeometry x="887" y="30" width="40" height="38" as="geometry" />
        </mxCell>
        <mxCell id="tJ3CRfDnOJXeIH4iDhJY-60" value="Amazon S3" style="outlineConnect=0;fontColor=#232F3E;gradientColor=#60A337;gradientDirection=north;fillColor=#277116;strokeColor=#ffffff;dashed=0;verticalLabelPosition=bottom;verticalAlign=top;align=center;html=1;fontSize=12;fontStyle=0;aspect=fixed;shape=mxgraph.aws4.resourceIcon;resIcon=mxgraph.aws4.s3;labelBackgroundColor=none;" vertex="1" parent="jZVaUwOg5UY3L9NAnvdq-71">
          <mxGeometry x="467" y="155" width="48" height="48" as="geometry" />
        </mxCell>
        <mxCell id="tJ3CRfDnOJXeIH4iDhJY-61" value="Amazon S3" style="outlineConnect=0;fontColor=#232F3E;gradientColor=#60A337;gradientDirection=north;fillColor=#277116;strokeColor=#ffffff;dashed=0;verticalLabelPosition=bottom;verticalAlign=top;align=center;html=1;fontSize=12;fontStyle=0;aspect=fixed;shape=mxgraph.aws4.resourceIcon;resIcon=mxgraph.aws4.s3;labelBackgroundColor=none;" vertex="1" parent="jZVaUwOg5UY3L9NAnvdq-71">
          <mxGeometry x="564" y="155" width="48" height="48" as="geometry" />
        </mxCell>
        <mxCell id="-QjtrjUzRDEMRZ5MF8oH-28" value="4" style="rounded=1;whiteSpace=wrap;html=1;fillColor=#007CBD;strokeColor=none;fontColor=#FFFFFF;fontStyle=1;fontSize=22;labelBackgroundColor=none;" parent="jZVaUwOg5UY3L9NAnvdq-71" vertex="1">
          <mxGeometry x="291" y="343" width="40" height="38" as="geometry" />
        </mxCell>
        <mxCell id="jZVaUwOg5UY3L9NAnvdq-105" value="6" style="rounded=1;whiteSpace=wrap;html=1;fillColor=#007CBD;strokeColor=none;fontColor=#FFFFFF;fontStyle=1;fontSize=22;labelBackgroundColor=none;" parent="jZVaUwOg5UY3L9NAnvdq-71" vertex="1">
          <mxGeometry x="1097" y="30" width="40" height="38" as="geometry" />
        </mxCell>
        <mxCell id="tJ3CRfDnOJXeIH4iDhJY-62" value="Bronze" style="text;html=1;align=center;verticalAlign=middle;resizable=0;points=[];autosize=1;strokeColor=none;fillColor=none;" vertex="1" parent="jZVaUwOg5UY3L9NAnvdq-71">
          <mxGeometry x="352" y="218.5" width="60" height="30" as="geometry" />
        </mxCell>
        <mxCell id="tJ3CRfDnOJXeIH4iDhJY-63" value="Silver" style="text;html=1;align=center;verticalAlign=middle;resizable=0;points=[];autosize=1;strokeColor=none;fillColor=none;" vertex="1" parent="jZVaUwOg5UY3L9NAnvdq-71">
          <mxGeometry x="465" y="218.5" width="50" height="30" as="geometry" />
        </mxCell>
        <mxCell id="tJ3CRfDnOJXeIH4iDhJY-64" value="Gold" style="text;html=1;align=center;verticalAlign=middle;resizable=0;points=[];autosize=1;strokeColor=none;fillColor=none;" vertex="1" parent="jZVaUwOg5UY3L9NAnvdq-71">
          <mxGeometry x="562" y="218.5" width="50" height="30" as="geometry" />
        </mxCell>
        <mxCell id="jZVaUwOg5UY3L9NAnvdq-111" value="" style="edgeStyle=elbowEdgeStyle;rounded=0;orthogonalLoop=1;jettySize=auto;html=1;endArrow=open;endFill=0;strokeColor=#545B64;strokeWidth=2;fontSize=14;" parent="jZVaUwOg5UY3L9NAnvdq-71" edge="1">
          <mxGeometry relative="1" as="geometry">
            <mxPoint x="177" y="280" as="sourcePoint" />
            <mxPoint x="287" y="130" as="targetPoint" />
            <Array as="points">
              <mxPoint x="217" y="470" />
            </Array>
          </mxGeometry>
        </mxCell>
        <mxCell id="jZVaUwOg5UY3L9NAnvdq-103" value="3" style="rounded=1;whiteSpace=wrap;html=1;fillColor=#007CBD;strokeColor=none;fontColor=#FFFFFF;fontStyle=1;fontSize=22;labelBackgroundColor=none;" parent="jZVaUwOg5UY3L9NAnvdq-71" vertex="1">
          <mxGeometry x="287" y="34" width="40" height="38" as="geometry" />
        </mxCell>
        <mxCell id="jZVaUwOg5UY3L9NAnvdq-136" value="" style="edgeStyle=elbowEdgeStyle;rounded=0;orthogonalLoop=1;jettySize=auto;html=1;endArrow=open;endFill=0;strokeColor=#545B64;strokeWidth=2;fontSize=14;" parent="jZVaUwOg5UY3L9NAnvdq-71" edge="1">
          <mxGeometry relative="1" as="geometry">
            <mxPoint x="597" y="330" as="sourcePoint" />
            <mxPoint x="597" y="255" as="targetPoint" />
          </mxGeometry>
        </mxCell>
        <mxCell id="jZVaUwOg5UY3L9NAnvdq-112" value="" style="edgeStyle=elbowEdgeStyle;rounded=0;orthogonalLoop=1;jettySize=auto;html=1;endArrow=open;endFill=0;strokeColor=#545B64;strokeWidth=2;fontSize=14;" parent="jZVaUwOg5UY3L9NAnvdq-71" edge="1">
          <mxGeometry relative="1" as="geometry">
            <mxPoint x="367" y="250" as="sourcePoint" />
            <mxPoint x="367" y="330" as="targetPoint" />
            <Array as="points">
              <mxPoint x="367" y="300" />
            </Array>
          </mxGeometry>
        </mxCell>
        <mxCell id="jZVaUwOg5UY3L9NAnvdq-107" value="8" style="rounded=1;whiteSpace=wrap;html=1;fillColor=#007CBD;strokeColor=none;fontColor=#FFFFFF;fontStyle=1;fontSize=22;labelBackgroundColor=none;" parent="jZVaUwOg5UY3L9NAnvdq-71" vertex="1">
          <mxGeometry x="1057" y="695" width="40" height="38" as="geometry" />
        </mxCell>
        <mxCell id="tJ3CRfDnOJXeIH4iDhJY-71" value="&lt;span style=&quot;color: rgb(0, 0, 0); font-family: Helvetica; font-size: 14px; font-style: normal; font-variant-ligatures: normal; font-variant-caps: normal; font-weight: 700; letter-spacing: normal; orphans: 2; text-align: center; text-indent: 0px; text-transform: none; widows: 2; word-spacing: 0px; -webkit-text-stroke-width: 0px; white-space: nowrap; background-color: rgb(251, 251, 251); text-decoration-thickness: initial; text-decoration-style: initial; text-decoration-color: initial; display: inline !important; float: none;&quot;&gt;Data Movement and Processing&lt;/span&gt;" style="text;whiteSpace=wrap;html=1;" vertex="1" parent="jZVaUwOg5UY3L9NAnvdq-71">
          <mxGeometry x="376" y="343" width="129" height="40" as="geometry" />
        </mxCell>
        <mxCell id="tJ3CRfDnOJXeIH4iDhJY-73" value="AWS Glue" style="text;html=1;align=center;verticalAlign=middle;resizable=0;points=[];autosize=1;strokeColor=none;fillColor=none;" vertex="1" parent="jZVaUwOg5UY3L9NAnvdq-71">
          <mxGeometry x="308" y="497" width="80" height="30" as="geometry" />
        </mxCell>
        <mxCell id="tJ3CRfDnOJXeIH4iDhJY-74" value="" style="sketch=0;points=[[0,0,0],[0.25,0,0],[0.5,0,0],[0.75,0,0],[1,0,0],[0,1,0],[0.25,1,0],[0.5,1,0],[0.75,1,0],[1,1,0],[0,0.25,0],[0,0.5,0],[0,0.75,0],[1,0.25,0],[1,0.5,0],[1,0.75,0]];outlineConnect=0;fontColor=#232F3E;fillColor=#8C4FFF;strokeColor=#ffffff;dashed=0;verticalLabelPosition=bottom;verticalAlign=top;align=center;html=1;fontSize=12;fontStyle=0;aspect=fixed;shape=mxgraph.aws4.resourceIcon;resIcon=mxgraph.aws4.glue;" vertex="1" parent="jZVaUwOg5UY3L9NAnvdq-71">
          <mxGeometry x="320" y="417" width="68" height="68" as="geometry" />
        </mxCell>
        <mxCell id="tJ3CRfDnOJXeIH4iDhJY-75" value="" style="sketch=0;points=[[0,0,0],[0.25,0,0],[0.5,0,0],[0.75,0,0],[1,0,0],[0,1,0],[0.25,1,0],[0.5,1,0],[0.75,1,0],[1,1,0],[0,0.25,0],[0,0.5,0],[0,0.75,0],[1,0.25,0],[1,0.5,0],[1,0.75,0]];outlineConnect=0;fontColor=#232F3E;fillColor=#8C4FFF;strokeColor=#ffffff;dashed=0;verticalLabelPosition=bottom;verticalAlign=top;align=center;html=1;fontSize=12;fontStyle=0;aspect=fixed;shape=mxgraph.aws4.resourceIcon;resIcon=mxgraph.aws4.glue_databrew;" vertex="1" parent="jZVaUwOg5UY3L9NAnvdq-71">
          <mxGeometry x="448" y="418" width="67" height="67" as="geometry" />
        </mxCell>
        <mxCell id="tJ3CRfDnOJXeIH4iDhJY-76" value="Glue&lt;div&gt;Databrew&lt;/div&gt;" style="text;html=1;align=center;verticalAlign=middle;resizable=0;points=[];autosize=1;strokeColor=none;fillColor=none;" vertex="1" parent="jZVaUwOg5UY3L9NAnvdq-71">
          <mxGeometry x="448" y="492" width="70" height="40" as="geometry" />
        </mxCell>
        <mxCell id="tJ3CRfDnOJXeIH4iDhJY-77" value="" style="sketch=0;points=[[0,0,0],[0.25,0,0],[0.5,0,0],[0.75,0,0],[1,0,0],[0,1,0],[0.25,1,0],[0.5,1,0],[0.75,1,0],[1,1,0],[0,0.25,0],[0,0.5,0],[0,0.75,0],[1,0.25,0],[1,0.5,0],[1,0.75,0]];outlineConnect=0;fontColor=#232F3E;fillColor=#8C4FFF;strokeColor=#ffffff;dashed=0;verticalLabelPosition=bottom;verticalAlign=top;align=center;html=1;fontSize=12;fontStyle=0;aspect=fixed;shape=mxgraph.aws4.resourceIcon;resIcon=mxgraph.aws4.emr;" vertex="1" parent="jZVaUwOg5UY3L9NAnvdq-71">
          <mxGeometry x="576" y="418" width="67" height="67" as="geometry" />
        </mxCell>
        <mxCell id="tJ3CRfDnOJXeIH4iDhJY-78" value="AWS EMR" style="text;html=1;align=center;verticalAlign=middle;resizable=0;points=[];autosize=1;strokeColor=none;fillColor=none;" vertex="1" parent="jZVaUwOg5UY3L9NAnvdq-71">
          <mxGeometry x="569.5" y="493" width="80" height="30" as="geometry" />
        </mxCell>
        <mxCell id="tJ3CRfDnOJXeIH4iDhJY-79" value="" style="endArrow=none;dashed=1;html=1;rounded=0;" edge="1" parent="jZVaUwOg5UY3L9NAnvdq-71">
          <mxGeometry width="50" height="50" relative="1" as="geometry">
            <mxPoint x="27" y="820" as="sourcePoint" />
            <mxPoint x="26.999999999999943" y="691" as="targetPoint" />
          </mxGeometry>
        </mxCell>
        <mxCell id="tJ3CRfDnOJXeIH4iDhJY-80" value="" style="endArrow=none;dashed=1;html=1;rounded=0;" edge="1" parent="jZVaUwOg5UY3L9NAnvdq-71">
          <mxGeometry width="50" height="50" relative="1" as="geometry">
            <mxPoint x="27.999999999999943" y="690" as="sourcePoint" />
            <mxPoint x="1097" y="690" as="targetPoint" />
          </mxGeometry>
        </mxCell>
        <mxCell id="tJ3CRfDnOJXeIH4iDhJY-81" value="" style="endArrow=none;dashed=1;html=1;rounded=0;" edge="1" parent="jZVaUwOg5UY3L9NAnvdq-71">
          <mxGeometry width="50" height="50" relative="1" as="geometry">
            <mxPoint x="1102" y="820" as="sourcePoint" />
            <mxPoint x="1102" y="690" as="targetPoint" />
          </mxGeometry>
        </mxCell>
        <mxCell id="tJ3CRfDnOJXeIH4iDhJY-82" value="" style="endArrow=none;dashed=1;html=1;rounded=0;" edge="1" parent="jZVaUwOg5UY3L9NAnvdq-71">
          <mxGeometry width="50" height="50" relative="1" as="geometry">
            <mxPoint x="27.999999999999943" y="821" as="sourcePoint" />
            <mxPoint x="1107" y="820" as="targetPoint" />
          </mxGeometry>
        </mxCell>
        <mxCell id="tJ3CRfDnOJXeIH4iDhJY-83" value="&lt;span style=&quot;color: rgb(0, 0, 0); font-family: Helvetica; font-size: 14px; font-style: normal; font-variant-ligatures: normal; font-variant-caps: normal; font-weight: 700; letter-spacing: normal; orphans: 2; text-align: center; text-indent: 0px; text-transform: none; widows: 2; word-spacing: 0px; -webkit-text-stroke-width: 0px; white-space: nowrap; background-color: rgb(251, 251, 251); text-decoration-thickness: initial; text-decoration-style: initial; text-decoration-color: initial; display: inline !important; float: none;&quot;&gt;Governance, Security and Monitoring&lt;/span&gt;" style="text;whiteSpace=wrap;html=1;" vertex="1" parent="jZVaUwOg5UY3L9NAnvdq-71">
          <mxGeometry x="407" y="690" width="129" height="40" as="geometry" />
        </mxCell>
        <mxCell id="tJ3CRfDnOJXeIH4iDhJY-84" value="" style="sketch=0;points=[[0,0,0],[0.25,0,0],[0.5,0,0],[0.75,0,0],[1,0,0],[0,1,0],[0.25,1,0],[0.5,1,0],[0.75,1,0],[1,1,0],[0,0.25,0],[0,0.5,0],[0,0.75,0],[1,0.25,0],[1,0.5,0],[1,0.75,0]];outlineConnect=0;fontColor=#232F3E;fillColor=#8C4FFF;strokeColor=#ffffff;dashed=0;verticalLabelPosition=bottom;verticalAlign=top;align=center;html=1;fontSize=12;fontStyle=0;aspect=fixed;shape=mxgraph.aws4.resourceIcon;resIcon=mxgraph.aws4.vpc;" vertex="1" parent="jZVaUwOg5UY3L9NAnvdq-71">
          <mxGeometry x="106" y="730" width="63" height="63" as="geometry" />
        </mxCell>
        <mxCell id="tJ3CRfDnOJXeIH4iDhJY-86" value="" style="outlineConnect=0;dashed=0;verticalLabelPosition=bottom;verticalAlign=top;align=center;html=1;shape=mxgraph.aws3.iam;fillColor=#759C3E;gradientColor=none;" vertex="1" parent="jZVaUwOg5UY3L9NAnvdq-71">
          <mxGeometry x="295" y="733" width="32" height="51" as="geometry" />
        </mxCell>
        <mxCell id="tJ3CRfDnOJXeIH4iDhJY-87" value="AWS IAM" style="text;html=1;align=center;verticalAlign=middle;resizable=0;points=[];autosize=1;strokeColor=none;fillColor=none;" vertex="1" parent="jZVaUwOg5UY3L9NAnvdq-71">
          <mxGeometry x="271" y="785" width="80" height="30" as="geometry" />
        </mxCell>
        <mxCell id="tJ3CRfDnOJXeIH4iDhJY-88" value="" style="sketch=0;points=[[0,0,0],[0.25,0,0],[0.5,0,0],[0.75,0,0],[1,0,0],[0,1,0],[0.25,1,0],[0.5,1,0],[0.75,1,0],[1,1,0],[0,0.25,0],[0,0.5,0],[0,0.75,0],[1,0.25,0],[1,0.5,0],[1,0.75,0]];outlineConnect=0;fontColor=#232F3E;fillColor=#8C4FFF;strokeColor=#ffffff;dashed=0;verticalLabelPosition=bottom;verticalAlign=top;align=center;html=1;fontSize=12;fontStyle=0;aspect=fixed;shape=mxgraph.aws4.resourceIcon;resIcon=mxgraph.aws4.lake_formation;" vertex="1" parent="jZVaUwOg5UY3L9NAnvdq-71">
          <mxGeometry x="431" y="731" width="60" height="60" as="geometry" />
        </mxCell>
        <mxCell id="tJ3CRfDnOJXeIH4iDhJY-90" value="" style="outlineConnect=0;dashed=0;verticalLabelPosition=bottom;verticalAlign=top;align=center;html=1;shape=mxgraph.aws3.kms;fillColor=#759C3E;gradientColor=none;" vertex="1" parent="jZVaUwOg5UY3L9NAnvdq-71">
          <mxGeometry x="595" y="726" width="64" height="64" as="geometry" />
        </mxCell>
        <mxCell id="tJ3CRfDnOJXeIH4iDhJY-91" value="AWS KMS" style="text;html=1;align=center;verticalAlign=middle;resizable=0;points=[];autosize=1;strokeColor=none;fillColor=none;" vertex="1" parent="jZVaUwOg5UY3L9NAnvdq-71">
          <mxGeometry x="587" y="785" width="80" height="30" as="geometry" />
        </mxCell>
        <mxCell id="tJ3CRfDnOJXeIH4iDhJY-93" value="" style="sketch=0;points=[[0,0,0],[0.25,0,0],[0.5,0,0],[0.75,0,0],[1,0,0],[0,1,0],[0.25,1,0],[0.5,1,0],[0.75,1,0],[1,1,0],[0,0.25,0],[0,0.5,0],[0,0.75,0],[1,0.25,0],[1,0.5,0],[1,0.75,0]];points=[[0,0,0],[0.25,0,0],[0.5,0,0],[0.75,0,0],[1,0,0],[0,1,0],[0.25,1,0],[0.5,1,0],[0.75,1,0],[1,1,0],[0,0.25,0],[0,0.5,0],[0,0.75,0],[1,0.25,0],[1,0.5,0],[1,0.75,0]];outlineConnect=0;fontColor=#232F3E;fillColor=#E7157B;strokeColor=#ffffff;dashed=0;verticalLabelPosition=bottom;verticalAlign=top;align=center;html=1;fontSize=12;fontStyle=0;aspect=fixed;shape=mxgraph.aws4.resourceIcon;resIcon=mxgraph.aws4.cloudtrail;" vertex="1" parent="jZVaUwOg5UY3L9NAnvdq-71">
          <mxGeometry x="764" y="726" width="64" height="64" as="geometry" />
        </mxCell>
        <mxCell id="tJ3CRfDnOJXeIH4iDhJY-94" value="CloudTrail" style="text;html=1;align=center;verticalAlign=middle;resizable=0;points=[];autosize=1;strokeColor=none;fillColor=none;" vertex="1" parent="jZVaUwOg5UY3L9NAnvdq-71">
          <mxGeometry x="756" y="785" width="80" height="30" as="geometry" />
        </mxCell>
        <mxCell id="tJ3CRfDnOJXeIH4iDhJY-96" value="" style="sketch=0;points=[[0,0,0],[0.25,0,0],[0.5,0,0],[0.75,0,0],[1,0,0],[0,1,0],[0.25,1,0],[0.5,1,0],[0.75,1,0],[1,1,0],[0,0.25,0],[0,0.5,0],[0,0.75,0],[1,0.25,0],[1,0.5,0],[1,0.75,0]];points=[[0,0,0],[0.25,0,0],[0.5,0,0],[0.75,0,0],[1,0,0],[0,1,0],[0.25,1,0],[0.5,1,0],[0.75,1,0],[1,1,0],[0,0.25,0],[0,0.5,0],[0,0.75,0],[1,0.25,0],[1,0.5,0],[1,0.75,0]];outlineConnect=0;fontColor=#232F3E;fillColor=#E7157B;strokeColor=#ffffff;dashed=0;verticalLabelPosition=bottom;verticalAlign=top;align=center;html=1;fontSize=12;fontStyle=0;aspect=fixed;shape=mxgraph.aws4.resourceIcon;resIcon=mxgraph.aws4.cloudwatch_2;" vertex="1" parent="jZVaUwOg5UY3L9NAnvdq-71">
          <mxGeometry x="953" y="726" width="64" height="64" as="geometry" />
        </mxCell>
        <mxCell id="tJ3CRfDnOJXeIH4iDhJY-97" value="CloudWatch" style="text;html=1;align=center;verticalAlign=middle;resizable=0;points=[];autosize=1;strokeColor=none;fillColor=none;" vertex="1" parent="jZVaUwOg5UY3L9NAnvdq-71">
          <mxGeometry x="939" y="785" width="90" height="30" as="geometry" />
        </mxCell>
        <mxCell id="tJ3CRfDnOJXeIH4iDhJY-99" value="" style="endArrow=none;dashed=1;html=1;rounded=0;" edge="1" parent="jZVaUwOg5UY3L9NAnvdq-71">
          <mxGeometry width="50" height="50" relative="1" as="geometry">
            <mxPoint x="738" y="30" as="sourcePoint" />
            <mxPoint x="888" y="30" as="targetPoint" />
          </mxGeometry>
        </mxCell>
        <mxCell id="tJ3CRfDnOJXeIH4iDhJY-100" value="" style="endArrow=none;dashed=1;html=1;rounded=0;" edge="1" parent="jZVaUwOg5UY3L9NAnvdq-71">
          <mxGeometry width="50" height="50" relative="1" as="geometry">
            <mxPoint x="888.0900000000001" y="670" as="sourcePoint" />
            <mxPoint x="888" y="30" as="targetPoint" />
          </mxGeometry>
        </mxCell>
        <mxCell id="tJ3CRfDnOJXeIH4iDhJY-98" value="" style="endArrow=none;dashed=1;html=1;rounded=0;" edge="1" parent="jZVaUwOg5UY3L9NAnvdq-71">
          <mxGeometry width="50" height="50" relative="1" as="geometry">
            <mxPoint x="738.09" y="670" as="sourcePoint" />
            <mxPoint x="737" y="31" as="targetPoint" />
          </mxGeometry>
        </mxCell>
        <mxCell id="tJ3CRfDnOJXeIH4iDhJY-101" value="" style="endArrow=none;dashed=1;html=1;rounded=0;" edge="1" parent="jZVaUwOg5UY3L9NAnvdq-71">
          <mxGeometry width="50" height="50" relative="1" as="geometry">
            <mxPoint x="738" y="673" as="sourcePoint" />
            <mxPoint x="888" y="673" as="targetPoint" />
          </mxGeometry>
        </mxCell>
        <mxCell id="tJ3CRfDnOJXeIH4iDhJY-106" value="" style="endArrow=none;dashed=1;html=1;rounded=0;" edge="1" parent="jZVaUwOg5UY3L9NAnvdq-71">
          <mxGeometry width="50" height="50" relative="1" as="geometry">
            <mxPoint x="951" y="30" as="sourcePoint" />
            <mxPoint x="1101" y="30" as="targetPoint" />
          </mxGeometry>
        </mxCell>
        <mxCell id="tJ3CRfDnOJXeIH4iDhJY-107" value="" style="endArrow=none;dashed=1;html=1;rounded=0;" edge="1" parent="jZVaUwOg5UY3L9NAnvdq-71">
          <mxGeometry width="50" height="50" relative="1" as="geometry">
            <mxPoint x="1101" y="390" as="sourcePoint" />
            <mxPoint x="1101" y="30" as="targetPoint" />
          </mxGeometry>
        </mxCell>
        <mxCell id="tJ3CRfDnOJXeIH4iDhJY-108" value="" style="endArrow=none;dashed=1;html=1;rounded=0;" edge="1" parent="jZVaUwOg5UY3L9NAnvdq-71">
          <mxGeometry width="50" height="50" relative="1" as="geometry">
            <mxPoint x="950" y="390" as="sourcePoint" />
            <mxPoint x="950" y="31" as="targetPoint" />
          </mxGeometry>
        </mxCell>
        <mxCell id="tJ3CRfDnOJXeIH4iDhJY-109" value="" style="endArrow=none;dashed=1;html=1;rounded=0;" edge="1" parent="jZVaUwOg5UY3L9NAnvdq-71">
          <mxGeometry width="50" height="50" relative="1" as="geometry">
            <mxPoint x="954" y="388" as="sourcePoint" />
            <mxPoint x="1104" y="388" as="targetPoint" />
          </mxGeometry>
        </mxCell>
        <mxCell id="tJ3CRfDnOJXeIH4iDhJY-110" value="" style="sketch=0;points=[[0,0,0],[0.25,0,0],[0.5,0,0],[0.75,0,0],[1,0,0],[0,1,0],[0.25,1,0],[0.5,1,0],[0.75,1,0],[1,1,0],[0,0.25,0],[0,0.5,0],[0,0.75,0],[1,0.25,0],[1,0.5,0],[1,0.75,0]];outlineConnect=0;fontColor=#232F3E;fillColor=#8C4FFF;strokeColor=#ffffff;dashed=0;verticalLabelPosition=bottom;verticalAlign=top;align=center;html=1;fontSize=12;fontStyle=0;aspect=fixed;shape=mxgraph.aws4.resourceIcon;resIcon=mxgraph.aws4.quicksight;" vertex="1" parent="jZVaUwOg5UY3L9NAnvdq-71">
          <mxGeometry x="989" y="90" width="80" height="80" as="geometry" />
        </mxCell>
        <mxCell id="tJ3CRfDnOJXeIH4iDhJY-111" value="AWS&lt;div&gt;Quicksight&lt;/div&gt;" style="text;html=1;align=center;verticalAlign=middle;resizable=0;points=[];autosize=1;strokeColor=none;fillColor=none;" vertex="1" parent="jZVaUwOg5UY3L9NAnvdq-71">
          <mxGeometry x="989" y="181.5" width="80" height="40" as="geometry" />
        </mxCell>
        <mxCell id="tJ3CRfDnOJXeIH4iDhJY-112" value="&lt;span style=&quot;color: rgb(0, 0, 0); font-family: Helvetica; font-size: 14px; font-style: normal; font-variant-ligatures: normal; font-variant-caps: normal; font-weight: 700; letter-spacing: normal; orphans: 2; text-align: center; text-indent: 0px; text-transform: none; widows: 2; word-spacing: 0px; -webkit-text-stroke-width: 0px; white-space: nowrap; background-color: rgb(251, 251, 251); text-decoration-thickness: initial; text-decoration-style: initial; text-decoration-color: initial; display: inline !important; float: none;&quot;&gt;Serving Layer&lt;/span&gt;" style="text;whiteSpace=wrap;html=1;" vertex="1" parent="jZVaUwOg5UY3L9NAnvdq-71">
          <mxGeometry x="764" y="32" width="129" height="40" as="geometry" />
        </mxCell>
        <mxCell id="tJ3CRfDnOJXeIH4iDhJY-113" value="&lt;span style=&quot;color: rgb(0, 0, 0); font-family: Helvetica; font-size: 14px; font-style: normal; font-variant-ligatures: normal; font-variant-caps: normal; font-weight: 700; letter-spacing: normal; orphans: 2; text-align: center; text-indent: 0px; text-transform: none; widows: 2; word-spacing: 0px; -webkit-text-stroke-width: 0px; white-space: nowrap; background-color: rgb(251, 251, 251); text-decoration-thickness: initial; text-decoration-style: initial; text-decoration-color: initial; display: inline !important; float: none;&quot;&gt;AWS Analytics&lt;/span&gt;" style="text;whiteSpace=wrap;html=1;" vertex="1" parent="jZVaUwOg5UY3L9NAnvdq-71">
          <mxGeometry x="975.5" y="32" width="129" height="40" as="geometry" />
        </mxCell>
        <mxCell id="tJ3CRfDnOJXeIH4iDhJY-114" value="" style="sketch=0;points=[[0,0,0],[0.25,0,0],[0.5,0,0],[0.75,0,0],[1,0,0],[0,1,0],[0.25,1,0],[0.5,1,0],[0.75,1,0],[1,1,0],[0,0.25,0],[0,0.5,0],[0,0.75,0],[1,0.25,0],[1,0.5,0],[1,0.75,0]];outlineConnect=0;fontColor=#232F3E;fillColor=#8C4FFF;strokeColor=#ffffff;dashed=0;verticalLabelPosition=bottom;verticalAlign=top;align=center;html=1;fontSize=12;fontStyle=0;aspect=fixed;shape=mxgraph.aws4.resourceIcon;resIcon=mxgraph.aws4.athena;" vertex="1" parent="jZVaUwOg5UY3L9NAnvdq-71">
          <mxGeometry x="773" y="90" width="78" height="78" as="geometry" />
        </mxCell>
        <mxCell id="tJ3CRfDnOJXeIH4iDhJY-115" value="Athena" style="text;html=1;align=center;verticalAlign=middle;resizable=0;points=[];autosize=1;strokeColor=none;fillColor=none;" vertex="1" parent="jZVaUwOg5UY3L9NAnvdq-71">
          <mxGeometry x="782" y="169.5" width="60" height="30" as="geometry" />
        </mxCell>
        <mxCell id="tJ3CRfDnOJXeIH4iDhJY-116" value="" style="sketch=0;points=[[0,0,0],[0.25,0,0],[0.5,0,0],[0.75,0,0],[1,0,0],[0,1,0],[0.25,1,0],[0.5,1,0],[0.75,1,0],[1,1,0],[0,0.25,0],[0,0.5,0],[0,0.75,0],[1,0.25,0],[1,0.5,0],[1,0.75,0]];outlineConnect=0;fontColor=#232F3E;fillColor=#8C4FFF;strokeColor=#ffffff;dashed=0;verticalLabelPosition=bottom;verticalAlign=top;align=center;html=1;fontSize=12;fontStyle=0;aspect=fixed;shape=mxgraph.aws4.resourceIcon;resIcon=mxgraph.aws4.redshift;" vertex="1" parent="jZVaUwOg5UY3L9NAnvdq-71">
          <mxGeometry x="774" y="283" width="78" height="78" as="geometry" />
        </mxCell>
        <mxCell id="tJ3CRfDnOJXeIH4iDhJY-117" value="Redshift&lt;div&gt;&amp;amp; Spectrum&lt;/div&gt;" style="text;html=1;align=center;verticalAlign=middle;resizable=0;points=[];autosize=1;strokeColor=none;fillColor=none;" vertex="1" parent="jZVaUwOg5UY3L9NAnvdq-71">
          <mxGeometry x="768" y="362" width="90" height="40" as="geometry" />
        </mxCell>
        <mxCell id="tJ3CRfDnOJXeIH4iDhJY-118" value="" style="sketch=0;outlineConnect=0;fontColor=#232F3E;gradientColor=none;fillColor=#8C4FFF;strokeColor=none;dashed=0;verticalLabelPosition=bottom;verticalAlign=top;align=center;html=1;fontSize=12;fontStyle=0;aspect=fixed;pointerEvents=1;shape=mxgraph.aws4.opensearch_service_index;" vertex="1" parent="jZVaUwOg5UY3L9NAnvdq-71">
          <mxGeometry x="774" y="477" width="78" height="78" as="geometry" />
        </mxCell>
        <mxCell id="tJ3CRfDnOJXeIH4iDhJY-119" value="AWS&amp;nbsp;&lt;div&gt;OpenSearch&lt;/div&gt;" style="text;html=1;align=center;verticalAlign=middle;resizable=0;points=[];autosize=1;strokeColor=none;fillColor=none;" vertex="1" parent="jZVaUwOg5UY3L9NAnvdq-71">
          <mxGeometry x="768" y="559" width="90" height="40" as="geometry" />
        </mxCell>
        <mxCell id="tJ3CRfDnOJXeIH4iDhJY-120" value="" style="edgeStyle=elbowEdgeStyle;rounded=0;orthogonalLoop=1;jettySize=auto;html=1;endArrow=open;endFill=0;strokeColor=#545B64;strokeWidth=2;fontSize=14;" edge="1" parent="jZVaUwOg5UY3L9NAnvdq-71">
          <mxGeometry relative="1" as="geometry">
            <mxPoint x="893" y="634" as="sourcePoint" />
            <mxPoint x="1167" y="634" as="targetPoint" />
            <Array as="points">
              <mxPoint x="1003" y="634" />
            </Array>
          </mxGeometry>
        </mxCell>
        <mxCell id="tJ3CRfDnOJXeIH4iDhJY-124" value="" style="edgeStyle=elbowEdgeStyle;rounded=0;orthogonalLoop=1;jettySize=auto;html=1;endArrow=open;endFill=0;strokeColor=#545B64;strokeWidth=2;fontSize=14;elbow=vertical;" edge="1" parent="jZVaUwOg5UY3L9NAnvdq-71">
          <mxGeometry relative="1" as="geometry">
            <mxPoint x="947" y="222" as="targetPoint" />
            <mxPoint x="887" y="221.67000000000002" as="sourcePoint" />
          </mxGeometry>
        </mxCell>
        <mxCell id="tJ3CRfDnOJXeIH4iDhJY-125" value="" style="edgeStyle=elbowEdgeStyle;rounded=0;orthogonalLoop=1;jettySize=auto;html=1;endArrow=open;endFill=0;strokeColor=#545B64;strokeWidth=2;fontSize=14;elbow=vertical;" edge="1" parent="jZVaUwOg5UY3L9NAnvdq-71">
          <mxGeometry relative="1" as="geometry">
            <mxPoint x="734" y="433" as="targetPoint" />
            <mxPoint x="684" y="432.49999999999994" as="sourcePoint" />
          </mxGeometry>
        </mxCell>
        <mxCell id="tJ3CRfDnOJXeIH4iDhJY-129" value="" style="sketch=0;points=[[0,0,0],[0.25,0,0],[0.5,0,0],[0.75,0,0],[1,0,0],[0,1,0],[0.25,1,0],[0.5,1,0],[0.75,1,0],[1,1,0],[0,0.25,0],[0,0.5,0],[0,0.75,0],[1,0.25,0],[1,0.5,0],[1,0.75,0]];outlineConnect=0;fontColor=#232F3E;fillColor=#E7157B;strokeColor=#ffffff;dashed=0;verticalLabelPosition=bottom;verticalAlign=top;align=center;html=1;fontSize=12;fontStyle=0;aspect=fixed;shape=mxgraph.aws4.resourceIcon;resIcon=mxgraph.aws4.step_functions;" vertex="1" parent="jZVaUwOg5UY3L9NAnvdq-71">
          <mxGeometry x="319" y="559" width="71" height="71" as="geometry" />
        </mxCell>
        <mxCell id="tJ3CRfDnOJXeIH4iDhJY-130" value="Step Functions" style="text;html=1;align=center;verticalAlign=middle;resizable=0;points=[];autosize=1;strokeColor=none;fillColor=none;" vertex="1" parent="jZVaUwOg5UY3L9NAnvdq-71">
          <mxGeometry x="307" y="630" width="100" height="30" as="geometry" />
        </mxCell>
        <mxCell id="tJ3CRfDnOJXeIH4iDhJY-131" value="" style="outlineConnect=0;dashed=0;verticalLabelPosition=bottom;verticalAlign=top;align=center;html=1;shape=mxgraph.aws3.lambda_function;fillColor=#F58534;gradientColor=none;" vertex="1" parent="jZVaUwOg5UY3L9NAnvdq-71">
          <mxGeometry x="448" y="559" width="69" height="72" as="geometry" />
        </mxCell>
        <mxCell id="tJ3CRfDnOJXeIH4iDhJY-132" value="Lambda" style="text;html=1;align=center;verticalAlign=middle;resizable=0;points=[];autosize=1;strokeColor=none;fillColor=none;" vertex="1" parent="jZVaUwOg5UY3L9NAnvdq-71">
          <mxGeometry x="448" y="631" width="70" height="30" as="geometry" />
        </mxCell>
        <mxCell id="tJ3CRfDnOJXeIH4iDhJY-133" value="" style="sketch=0;points=[[0,0,0],[0.25,0,0],[0.5,0,0],[0.75,0,0],[1,0,0],[0,1,0],[0.25,1,0],[0.5,1,0],[0.75,1,0],[1,1,0],[0,0.25,0],[0,0.5,0],[0,0.75,0],[1,0.25,0],[1,0.5,0],[1,0.75,0]];outlineConnect=0;fontColor=#232F3E;fillColor=#E7157B;strokeColor=#ffffff;dashed=0;verticalLabelPosition=bottom;verticalAlign=top;align=center;html=1;fontSize=12;fontStyle=0;aspect=fixed;shape=mxgraph.aws4.resourceIcon;resIcon=mxgraph.aws4.eventbridge;" vertex="1" parent="jZVaUwOg5UY3L9NAnvdq-71">
          <mxGeometry x="576.5" y="560" width="71" height="71" as="geometry" />
        </mxCell>
        <mxCell id="tJ3CRfDnOJXeIH4iDhJY-134" value="EventBridge" style="text;html=1;align=center;verticalAlign=middle;resizable=0;points=[];autosize=1;strokeColor=none;fillColor=none;" vertex="1" parent="jZVaUwOg5UY3L9NAnvdq-71">
          <mxGeometry x="567" y="631" width="90" height="30" as="geometry" />
        </mxCell>
        <mxCell id="jZVaUwOg5UY3L9NAnvdq-121" value="" style="edgeStyle=elbowEdgeStyle;rounded=0;orthogonalLoop=1;jettySize=auto;html=1;endArrow=open;endFill=0;strokeColor=#545B64;strokeWidth=2;fontSize=14;" parent="1" edge="1">
          <mxGeometry relative="1" as="geometry">
            <mxPoint x="1368" y="310" as="sourcePoint" />
            <mxPoint x="1478" y="460" as="targetPoint" />
            <Array as="points">
              <mxPoint x="1478" y="310" />
            </Array>
          </mxGeometry>
        </mxCell>
        <mxCell id="-QjtrjUzRDEMRZ5MF8oH-46" value="" style="rounded=0;whiteSpace=wrap;html=1;fillColor=#EAEDED;fontSize=22;fontColor=#FFFFFF;strokeColor=none;labelBackgroundColor=none;" parent="1" vertex="1">
          <mxGeometry x="1544.5" y="37" width="539" height="913" as="geometry" />
        </mxCell>
        <mxCell id="-QjtrjUzRDEMRZ5MF8oH-36" value="1" style="rounded=1;whiteSpace=wrap;html=1;fillColor=#007CBD;strokeColor=none;fontColor=#FFFFFF;fontStyle=1;fontSize=22;labelBackgroundColor=none;" parent="1" vertex="1">
          <mxGeometry x="1563" y="49.5" width="40" height="38" as="geometry" />
        </mxCell>
        <mxCell id="-QjtrjUzRDEMRZ5MF8oH-37" value="2" style="rounded=1;whiteSpace=wrap;html=1;fillColor=#007CBD;strokeColor=none;fontColor=#FFFFFF;fontStyle=1;fontSize=22;labelBackgroundColor=none;" parent="1" vertex="1">
          <mxGeometry x="1561.5" y="111.5" width="40" height="38" as="geometry" />
        </mxCell>
        <mxCell id="-QjtrjUzRDEMRZ5MF8oH-38" value="3" style="rounded=1;whiteSpace=wrap;html=1;fillColor=#007CBD;strokeColor=none;fontColor=#FFFFFF;fontStyle=1;fontSize=22;labelBackgroundColor=none;" parent="1" vertex="1">
          <mxGeometry x="1561.5" y="260" width="40" height="38" as="geometry" />
        </mxCell>
        <mxCell id="-QjtrjUzRDEMRZ5MF8oH-39" value="4" style="rounded=1;whiteSpace=wrap;html=1;fillColor=#007CBD;strokeColor=none;fontColor=#FFFFFF;fontStyle=1;fontSize=22;labelBackgroundColor=none;" parent="1" vertex="1">
          <mxGeometry x="1561.5" y="405.5" width="40" height="38" as="geometry" />
        </mxCell>
        <mxCell id="-QjtrjUzRDEMRZ5MF8oH-40" value="5" style="rounded=1;whiteSpace=wrap;html=1;fillColor=#007CBD;strokeColor=none;fontColor=#FFFFFF;fontStyle=1;fontSize=22;labelBackgroundColor=none;" parent="1" vertex="1">
          <mxGeometry x="1563" y="522.5" width="40" height="38" as="geometry" />
        </mxCell>
        <mxCell id="-QjtrjUzRDEMRZ5MF8oH-41" value="6" style="rounded=1;whiteSpace=wrap;html=1;fillColor=#007CBD;strokeColor=none;fontColor=#FFFFFF;fontStyle=1;fontSize=22;labelBackgroundColor=none;" parent="1" vertex="1">
          <mxGeometry x="1561.5" y="659.5" width="40" height="38" as="geometry" />
        </mxCell>
        <mxCell id="-QjtrjUzRDEMRZ5MF8oH-42" value="7" style="rounded=1;whiteSpace=wrap;html=1;fillColor=#007CBD;strokeColor=none;fontColor=#FFFFFF;fontStyle=1;fontSize=22;labelBackgroundColor=none;" parent="1" vertex="1">
          <mxGeometry x="1563.5" y="745.5" width="40" height="38" as="geometry" />
        </mxCell>
        <mxCell id="-QjtrjUzRDEMRZ5MF8oH-43" value="8" style="rounded=1;whiteSpace=wrap;html=1;fillColor=#007CBD;strokeColor=none;fontColor=#FFFFFF;fontStyle=1;fontSize=22;labelBackgroundColor=none;" parent="1" vertex="1">
          <mxGeometry x="1563.5" y="850" width="40" height="38" as="geometry" />
        </mxCell>
        <mxCell id="-QjtrjUzRDEMRZ5MF8oH-47" value="AWS Big Data Architecture" style="text;html=1;resizable=0;points=[];autosize=1;align=left;verticalAlign=top;spacingTop=-4;fontSize=30;fontStyle=1;labelBackgroundColor=none;" parent="1" vertex="1">
          <mxGeometry x="36.5" y="26.5" width="380" height="40" as="geometry" />
        </mxCell>
        <mxCell id="-QjtrjUzRDEMRZ5MF8oH-48" value="Teste - Analytics Engineering" style="text;html=1;resizable=0;points=[];autosize=1;align=left;verticalAlign=top;spacingTop=-4;fontSize=16;labelBackgroundColor=none;" parent="1" vertex="1">
          <mxGeometry x="36.5" y="76.5" width="230" height="30" as="geometry" />
        </mxCell>
        <mxCell id="SCVMTBWpLvtzJIhz15lM-1" value="" style="line;strokeWidth=2;html=1;fontSize=14;labelBackgroundColor=none;" parent="1" vertex="1">
          <mxGeometry x="32.5" y="101.5" width="1060" height="10" as="geometry" />
        </mxCell>
        <mxCell id="SCVMTBWpLvtzJIhz15lM-6" value="&lt;span&gt;Exemplos possíveis de Data Sources. No caso, o cenário proposto prevê extração de dados de API.&lt;/span&gt;" style="text;html=1;align=left;verticalAlign=top;spacingTop=-4;fontSize=14;labelBackgroundColor=none;whiteSpace=wrap;" parent="1" vertex="1">
          <mxGeometry x="1614.5" y="49" width="449" height="41" as="geometry" />
        </mxCell>
        <mxCell id="SCVMTBWpLvtzJIhz15lM-7" value="&lt;span&gt;Ferramentas de integração de dados, como o cenário proposto requer consumo de API, podemos atacar o problema usando códigos Python rodando no Glue. Há diversas bibliotecas que podemos usar para lidar com a extração e transformação de arquivos JSON, como Pandas, PySpark, Polars e DuckDB. Para este cenário, eu recomendaria PySpark, por estarmos falando de um cenário de Big Data, além de ser uma das mais usadas e, caso precisemos usar o EMR com Spark, teremos mais organização e menos risco.&lt;/span&gt;" style="text;html=1;align=left;verticalAlign=top;spacingTop=-4;fontSize=14;labelBackgroundColor=none;whiteSpace=wrap;" parent="1" vertex="1">
          <mxGeometry x="1613.5" y="110" width="450" height="120" as="geometry" />
        </mxCell>
        <mxCell id="SCVMTBWpLvtzJIhz15lM-9" value="&lt;span&gt;Data Lake com estrutura &quot;medallion architecture&quot; contendo 3 camadas:&lt;/span&gt;&lt;div&gt;Bronze: onde fazemos a ingestão dos dados brutos.&lt;/div&gt;&lt;div&gt;Silver: onde fazemos a limpeza dos dados, definição de datatypes, padronização de schemas e nomenclaturas. Servirá como fonte da verdade. Recomendo que a carga nessa camada já seja feita em arquivos parquet, pois, como estamos considerando um cenário de Big Data, isso favorecerá performance de processamento e armazenamento.&lt;/div&gt;" style="text;html=1;align=left;verticalAlign=top;spacingTop=-4;fontSize=14;labelBackgroundColor=none;whiteSpace=wrap;" parent="1" vertex="1">
          <mxGeometry x="1613.5" y="260" width="450" height="147" as="geometry" />
        </mxCell>
        <mxCell id="SCVMTBWpLvtzJIhz15lM-10" value="&lt;span&gt;A princípio, Glue jobs e Databrew devem ser suficiente para tratar da maior parte das transformações e cargas dos pipelines. Consideramos EMR para cargas com processamento muito pesado e grandes volumes de dados, onde podemos utilizar clusters de Spark. Step Functions, Lambdas e EventBridge pode ser usados na orquestração e gatilhos para execução dos jobs de transformação e processamento.&lt;/span&gt;" style="text;html=1;align=left;verticalAlign=top;spacingTop=-4;fontSize=14;labelBackgroundColor=none;whiteSpace=wrap;" parent="1" vertex="1">
          <mxGeometry x="1613.5" y="406" width="450" height="121" as="geometry" />
        </mxCell>
        <mxCell id="SCVMTBWpLvtzJIhz15lM-11" value="&lt;span&gt;A Serving Layer literalmente exerce o papel da camada que serve os dados para consumo, seja por Queries interativas no Athena ou Spectrum, ou de fato estruturando um Data Warehouse corporativo no Redshift. A definição dessa estrutura, ou o uso simultâneo de mais de uma destas, passa pela definição da estratégia de governança, se faremos segregação de acesso por domínio de negócio, assim como a volumetria de dados e capacidade de processamento necessário.&lt;/span&gt;" style="text;html=1;align=left;verticalAlign=top;spacingTop=-4;fontSize=14;labelBackgroundColor=none;whiteSpace=wrap;" parent="1" vertex="1">
          <mxGeometry x="1614.5" y="523" width="449" height="114" as="geometry" />
        </mxCell>
        <mxCell id="SCVMTBWpLvtzJIhz15lM-12" value="Possíveis capacidades de Analytics no próprio ecossistema da AWS. Quicksight para criação de Dashboards e relatórios e o Sagemaker como solução para ciência de dados, treinamento e deploy de modelos de Machine Learning." style="text;html=1;align=left;verticalAlign=top;spacingTop=-4;fontSize=14;labelBackgroundColor=none;whiteSpace=wrap;" parent="1" vertex="1">
          <mxGeometry x="1614.5" y="654" width="450" height="118" as="geometry" />
        </mxCell>
        <mxCell id="SCVMTBWpLvtzJIhz15lM-13" value="&lt;span&gt;Power BI para criação de dashboards e compartilhamento de relatórios, é necessário considerá-lo na arquitetura pela adoção masssiva que tem no mercado. A definição de qual ferramenta utilizar deve passar por toda a estratégia, mas minha recomendação é que o Power Bi seja utilizado.&lt;/span&gt;" style="text;html=1;align=left;verticalAlign=top;spacingTop=-4;fontSize=14;labelBackgroundColor=none;whiteSpace=wrap;" parent="1" vertex="1">
          <mxGeometry x="1614.5" y="740" width="449" height="127" as="geometry" />
        </mxCell>
        <mxCell id="SCVMTBWpLvtzJIhz15lM-14" value="&lt;span&gt;Ferramental completo para gestão de todo o ambiente, desde segurança do ambiente, segregação de acesso e permississões, gestão de chaves de criptografia, monitoramento de toda a atividade dentro da conta da nuvem, gestão e análise dos logs da aplicação.&lt;/span&gt;" style="text;html=1;align=left;verticalAlign=top;spacingTop=-4;fontSize=14;labelBackgroundColor=none;whiteSpace=wrap;" parent="1" vertex="1">
          <mxGeometry x="1614.5" y="840" width="449" height="90" as="geometry" />
        </mxCell>
        <mxCell id="jZVaUwOg5UY3L9NAnvdq-59" value="Data Sources" style="swimlane;fontSize=14;align=center;swimlaneFillColor=#f4f4f4;fillColor=#f4f4f4;startSize=33;container=1;pointerEvents=0;collapsible=0;recursiveResize=0;" parent="1" vertex="1">
          <mxGeometry x="30" y="125" width="210" height="815" as="geometry" />
        </mxCell>
        <mxCell id="tJ3CRfDnOJXeIH4iDhJY-2" value="SQL/NoSQL DBs" style="text;html=1;align=center;verticalAlign=middle;resizable=0;points=[];autosize=1;strokeColor=none;fillColor=none;" vertex="1" parent="jZVaUwOg5UY3L9NAnvdq-59">
          <mxGeometry x="42" y="96" width="120" height="30" as="geometry" />
        </mxCell>
        <mxCell id="tJ3CRfDnOJXeIH4iDhJY-3" value="" style="shape=image;html=1;verticalAlign=top;verticalLabelPosition=bottom;labelBackgroundColor=#ffffff;imageAspect=0;aspect=fixed;image=https://cdn4.iconfinder.com/data/icons/online-marketing-hand-drawn-vol-2/52/file__share__social__page__format__column__document-128.png" vertex="1" parent="jZVaUwOg5UY3L9NAnvdq-59">
          <mxGeometry x="72" y="130" width="60" height="60" as="geometry" />
        </mxCell>
        <mxCell id="tJ3CRfDnOJXeIH4iDhJY-4" value="File Shares" style="text;html=1;align=center;verticalAlign=middle;resizable=0;points=[];autosize=1;strokeColor=none;fillColor=none;" vertex="1" parent="jZVaUwOg5UY3L9NAnvdq-59">
          <mxGeometry x="62" y="186" width="80" height="30" as="geometry" />
        </mxCell>
        <mxCell id="tJ3CRfDnOJXeIH4iDhJY-6" value="" style="html=1;verticalLabelPosition=bottom;align=center;labelBackgroundColor=#ffffff;verticalAlign=top;strokeWidth=2;strokeColor=#0080F0;shadow=0;dashed=0;shape=mxgraph.ios7.icons.data;" vertex="1" parent="jZVaUwOg5UY3L9NAnvdq-59">
          <mxGeometry x="83" y="55" width="38" height="38" as="geometry" />
        </mxCell>
        <mxCell id="jZVaUwOg5UY3L9NAnvdq-65" value="Mobile / Web" style="outlineConnect=0;fontColor=#232F3E;gradientColor=none;strokeColor=none;fillColor=#277116;dashed=0;verticalLabelPosition=bottom;verticalAlign=top;align=center;html=1;fontSize=12;fontStyle=0;shape=mxgraph.aws4.mobile_client;labelBackgroundColor=none;" parent="jZVaUwOg5UY3L9NAnvdq-59" vertex="1">
          <mxGeometry x="87" y="237" width="29.5" height="62" as="geometry" />
        </mxCell>
        <mxCell id="tJ3CRfDnOJXeIH4iDhJY-10" value="" style="sketch=0;outlineConnect=0;fontColor=#232F3E;gradientColor=none;fillColor=#232F3D;strokeColor=none;dashed=0;verticalLabelPosition=bottom;verticalAlign=top;align=center;html=1;fontSize=12;fontStyle=0;aspect=fixed;pointerEvents=1;shape=mxgraph.aws4.logs;" vertex="1" parent="jZVaUwOg5UY3L9NAnvdq-59">
          <mxGeometry x="82.43" y="338" width="37.63" height="51.5" as="geometry" />
        </mxCell>
        <mxCell id="tJ3CRfDnOJXeIH4iDhJY-12" value="" style="image;sketch=0;aspect=fixed;html=1;points=[];align=center;fontSize=12;image=img/lib/mscae/Software_as_a_Service.svg;" vertex="1" parent="jZVaUwOg5UY3L9NAnvdq-59">
          <mxGeometry x="72.75" y="446" width="57" height="57" as="geometry" />
        </mxCell>
        <mxCell id="tJ3CRfDnOJXeIH4iDhJY-14" value="" style="sketch=0;aspect=fixed;pointerEvents=1;shadow=0;dashed=0;html=1;strokeColor=none;labelPosition=center;verticalLabelPosition=bottom;verticalAlign=top;align=center;fillColor=#00188D;shape=mxgraph.azure.file" vertex="1" parent="jZVaUwOg5UY3L9NAnvdq-59">
          <mxGeometry x="78.5" y="553" width="47" height="50" as="geometry" />
        </mxCell>
        <mxCell id="tJ3CRfDnOJXeIH4iDhJY-11" value="Logs" style="text;html=1;align=center;verticalAlign=middle;resizable=0;points=[];autosize=1;strokeColor=none;fillColor=none;" vertex="1" parent="jZVaUwOg5UY3L9NAnvdq-59">
          <mxGeometry x="77" y="392" width="50" height="30" as="geometry" />
        </mxCell>
        <mxCell id="tJ3CRfDnOJXeIH4iDhJY-13" value="SaaS Apps" style="text;html=1;align=center;verticalAlign=middle;resizable=0;points=[];autosize=1;strokeColor=none;fillColor=none;" vertex="1" parent="jZVaUwOg5UY3L9NAnvdq-59">
          <mxGeometry x="65" y="502" width="80" height="30" as="geometry" />
        </mxCell>
        <mxCell id="tJ3CRfDnOJXeIH4iDhJY-15" value="Flat Files" style="text;html=1;align=center;verticalAlign=middle;resizable=0;points=[];autosize=1;strokeColor=none;fillColor=none;" vertex="1" parent="jZVaUwOg5UY3L9NAnvdq-59">
          <mxGeometry x="70" y="605" width="70" height="30" as="geometry" />
        </mxCell>
        <mxCell id="jZVaUwOg5UY3L9NAnvdq-95" value="API" style="outlineConnect=0;fontColor=#232F3E;gradientColor=none;fillColor=#277116;strokeColor=none;dashed=0;verticalLabelPosition=bottom;verticalAlign=top;align=center;html=1;fontSize=12;fontStyle=0;aspect=fixed;pointerEvents=1;shape=mxgraph.aws4.external_sdk;labelBackgroundColor=none;" parent="jZVaUwOg5UY3L9NAnvdq-59" vertex="1">
          <mxGeometry x="73" y="636.62" width="57" height="65.38" as="geometry" />
        </mxCell>
        <mxCell id="tJ3CRfDnOJXeIH4iDhJY-127" value="1" style="rounded=1;whiteSpace=wrap;html=1;fillColor=#007CBD;strokeColor=none;fontColor=#FFFFFF;fontStyle=1;fontSize=22;labelBackgroundColor=none;" vertex="1" parent="jZVaUwOg5UY3L9NAnvdq-59">
          <mxGeometry x="2" y="35" width="40" height="38" as="geometry" />
        </mxCell>
        <mxCell id="jZVaUwOg5UY3L9NAnvdq-88" value="Users&lt;br&gt;" style="outlineConnect=0;fontColor=#232F3E;gradientColor=none;fillColor=#232F3E;strokeColor=none;dashed=0;verticalLabelPosition=bottom;verticalAlign=top;align=center;html=1;fontSize=12;fontStyle=0;aspect=fixed;pointerEvents=1;shape=mxgraph.aws4.users;labelBackgroundColor=none;" parent="1" vertex="1">
          <mxGeometry x="1442" y="482.5" width="78" height="78" as="geometry" />
        </mxCell>
        <mxCell id="jZVaUwOg5UY3L9NAnvdq-96" value="Amazon&lt;br&gt;SageMaker&lt;br&gt;" style="outlineConnect=0;fontColor=#232F3E;gradientColor=#4AB29A;gradientDirection=north;fillColor=#116D5B;strokeColor=#ffffff;dashed=0;verticalLabelPosition=bottom;verticalAlign=top;align=center;html=1;fontSize=12;fontStyle=0;aspect=fixed;shape=mxgraph.aws4.resourceIcon;resIcon=mxgraph.aws4.sagemaker;labelBackgroundColor=#ffffff;spacingTop=7;" parent="1" vertex="1">
          <mxGeometry x="1252" y="351.4999999999998" width="78" height="78" as="geometry" />
        </mxCell>
        <mxCell id="jZVaUwOg5UY3L9NAnvdq-163" value="" style="group" parent="1" vertex="1" connectable="0">
          <mxGeometry x="252.50000000000006" y="697.5" width="21" height="26" as="geometry" />
        </mxCell>
        <mxCell id="jZVaUwOg5UY3L9NAnvdq-162" value="" style="rounded=0;whiteSpace=wrap;html=1;labelBackgroundColor=#ffffff;fontSize=14;align=center;strokeColor=none;" parent="jZVaUwOg5UY3L9NAnvdq-163" vertex="1">
          <mxGeometry width="21" height="26" as="geometry" />
        </mxCell>
        <mxCell id="jZVaUwOg5UY3L9NAnvdq-161" value="" style="outlineConnect=0;fontColor=#232F3E;gradientColor=none;fillColor=#B3B3B3;strokeColor=none;dashed=0;verticalLabelPosition=bottom;verticalAlign=top;align=center;html=1;fontSize=12;fontStyle=0;aspect=fixed;pointerEvents=1;shape=mxgraph.aws4.encrypted_data;labelBackgroundColor=#ffffff;" parent="jZVaUwOg5UY3L9NAnvdq-163" vertex="1">
          <mxGeometry width="21" height="26" as="geometry" />
        </mxCell>
        <mxCell id="jZVaUwOg5UY3L9NAnvdq-164" value="" style="group" parent="1" vertex="1" connectable="0">
          <mxGeometry x="253.00000000000006" y="638.5" width="21" height="26" as="geometry" />
        </mxCell>
        <mxCell id="jZVaUwOg5UY3L9NAnvdq-165" value="" style="rounded=0;whiteSpace=wrap;html=1;labelBackgroundColor=#ffffff;fontSize=14;align=center;strokeColor=none;" parent="jZVaUwOg5UY3L9NAnvdq-164" vertex="1">
          <mxGeometry width="21" height="26" as="geometry" />
        </mxCell>
        <mxCell id="jZVaUwOg5UY3L9NAnvdq-166" value="" style="outlineConnect=0;fontColor=#232F3E;gradientColor=none;fillColor=#B3B3B3;strokeColor=none;dashed=0;verticalLabelPosition=bottom;verticalAlign=top;align=center;html=1;fontSize=12;fontStyle=0;aspect=fixed;pointerEvents=1;shape=mxgraph.aws4.encrypted_data;labelBackgroundColor=#ffffff;" parent="jZVaUwOg5UY3L9NAnvdq-164" vertex="1">
          <mxGeometry width="21" height="26" as="geometry" />
        </mxCell>
        <mxCell id="jZVaUwOg5UY3L9NAnvdq-167" value="" style="group" parent="1" vertex="1" connectable="0">
          <mxGeometry x="253.00000000000006" y="550" width="21" height="26" as="geometry" />
        </mxCell>
        <mxCell id="jZVaUwOg5UY3L9NAnvdq-168" value="" style="rounded=0;whiteSpace=wrap;html=1;labelBackgroundColor=#ffffff;fontSize=14;align=center;strokeColor=none;" parent="jZVaUwOg5UY3L9NAnvdq-167" vertex="1">
          <mxGeometry width="21" height="26" as="geometry" />
        </mxCell>
        <mxCell id="jZVaUwOg5UY3L9NAnvdq-169" value="" style="outlineConnect=0;fontColor=#232F3E;gradientColor=none;fillColor=#B3B3B3;strokeColor=none;dashed=0;verticalLabelPosition=bottom;verticalAlign=top;align=center;html=1;fontSize=12;fontStyle=0;aspect=fixed;pointerEvents=1;shape=mxgraph.aws4.encrypted_data;labelBackgroundColor=#ffffff;" parent="jZVaUwOg5UY3L9NAnvdq-167" vertex="1">
          <mxGeometry width="21" height="26" as="geometry" />
        </mxCell>
        <mxCell id="jZVaUwOg5UY3L9NAnvdq-170" value="" style="group" parent="1" vertex="1" connectable="0">
          <mxGeometry x="253.00000000000006" y="410.5" width="21" height="26" as="geometry" />
        </mxCell>
        <mxCell id="jZVaUwOg5UY3L9NAnvdq-171" value="" style="rounded=0;whiteSpace=wrap;html=1;labelBackgroundColor=#ffffff;fontSize=14;align=center;strokeColor=none;" parent="jZVaUwOg5UY3L9NAnvdq-170" vertex="1">
          <mxGeometry width="21" height="26" as="geometry" />
        </mxCell>
        <mxCell id="jZVaUwOg5UY3L9NAnvdq-172" value="" style="outlineConnect=0;fontColor=#232F3E;gradientColor=none;fillColor=#B3B3B3;strokeColor=none;dashed=0;verticalLabelPosition=bottom;verticalAlign=top;align=center;html=1;fontSize=12;fontStyle=0;aspect=fixed;pointerEvents=1;shape=mxgraph.aws4.encrypted_data;labelBackgroundColor=#ffffff;" parent="jZVaUwOg5UY3L9NAnvdq-170" vertex="1">
          <mxGeometry width="21" height="26" as="geometry" />
        </mxCell>
        <mxCell id="jZVaUwOg5UY3L9NAnvdq-173" value="" style="group" parent="1" vertex="1" connectable="0">
          <mxGeometry x="252.50000000000006" y="375.5" width="21" height="26" as="geometry" />
        </mxCell>
        <mxCell id="jZVaUwOg5UY3L9NAnvdq-174" value="" style="rounded=0;whiteSpace=wrap;html=1;labelBackgroundColor=#ffffff;fontSize=14;align=center;strokeColor=none;" parent="jZVaUwOg5UY3L9NAnvdq-173" vertex="1">
          <mxGeometry width="21" height="26" as="geometry" />
        </mxCell>
        <mxCell id="jZVaUwOg5UY3L9NAnvdq-175" value="" style="outlineConnect=0;fontColor=#232F3E;gradientColor=none;fillColor=#B3B3B3;strokeColor=none;dashed=0;verticalLabelPosition=bottom;verticalAlign=top;align=center;html=1;fontSize=12;fontStyle=0;aspect=fixed;pointerEvents=1;shape=mxgraph.aws4.encrypted_data;labelBackgroundColor=#ffffff;" parent="jZVaUwOg5UY3L9NAnvdq-173" vertex="1">
          <mxGeometry width="21" height="26" as="geometry" />
        </mxCell>
        <mxCell id="jZVaUwOg5UY3L9NAnvdq-176" value="" style="group" parent="1" vertex="1" connectable="0">
          <mxGeometry x="253.00000000000006" y="340" width="21" height="26" as="geometry" />
        </mxCell>
        <mxCell id="jZVaUwOg5UY3L9NAnvdq-177" value="" style="rounded=0;whiteSpace=wrap;html=1;labelBackgroundColor=#ffffff;fontSize=14;align=center;strokeColor=none;" parent="jZVaUwOg5UY3L9NAnvdq-176" vertex="1">
          <mxGeometry width="21" height="26" as="geometry" />
        </mxCell>
        <mxCell id="jZVaUwOg5UY3L9NAnvdq-178" value="" style="outlineConnect=0;fontColor=#232F3E;gradientColor=none;fillColor=#B3B3B3;strokeColor=none;dashed=0;verticalLabelPosition=bottom;verticalAlign=top;align=center;html=1;fontSize=12;fontStyle=0;aspect=fixed;pointerEvents=1;shape=mxgraph.aws4.encrypted_data;labelBackgroundColor=#ffffff;" parent="jZVaUwOg5UY3L9NAnvdq-176" vertex="1">
          <mxGeometry width="21" height="26" as="geometry" />
        </mxCell>
        <mxCell id="jZVaUwOg5UY3L9NAnvdq-179" value="" style="group" parent="1" vertex="1" connectable="0">
          <mxGeometry x="1350" y="384.5" width="21" height="26" as="geometry" />
        </mxCell>
        <mxCell id="jZVaUwOg5UY3L9NAnvdq-180" value="" style="rounded=0;whiteSpace=wrap;html=1;labelBackgroundColor=#ffffff;fontSize=14;align=center;strokeColor=none;" parent="jZVaUwOg5UY3L9NAnvdq-179" vertex="1">
          <mxGeometry width="21" height="26" as="geometry" />
        </mxCell>
        <mxCell id="jZVaUwOg5UY3L9NAnvdq-181" value="" style="outlineConnect=0;fontColor=#232F3E;gradientColor=none;fillColor=#B3B3B3;strokeColor=none;dashed=0;verticalLabelPosition=bottom;verticalAlign=top;align=center;html=1;fontSize=12;fontStyle=0;aspect=fixed;pointerEvents=1;shape=mxgraph.aws4.encrypted_data;labelBackgroundColor=#ffffff;" parent="jZVaUwOg5UY3L9NAnvdq-179" vertex="1">
          <mxGeometry width="21" height="26" as="geometry" />
        </mxCell>
        <mxCell id="jZVaUwOg5UY3L9NAnvdq-182" value="" style="group" parent="1" vertex="1" connectable="0">
          <mxGeometry x="1350" y="282" width="21" height="26" as="geometry" />
        </mxCell>
        <mxCell id="jZVaUwOg5UY3L9NAnvdq-183" value="" style="rounded=0;whiteSpace=wrap;html=1;labelBackgroundColor=#ffffff;fontSize=14;align=center;strokeColor=none;" parent="jZVaUwOg5UY3L9NAnvdq-182" vertex="1">
          <mxGeometry width="21" height="26" as="geometry" />
        </mxCell>
        <mxCell id="jZVaUwOg5UY3L9NAnvdq-184" value="" style="outlineConnect=0;fontColor=#232F3E;gradientColor=none;fillColor=#B3B3B3;strokeColor=none;dashed=0;verticalLabelPosition=bottom;verticalAlign=top;align=center;html=1;fontSize=12;fontStyle=0;aspect=fixed;pointerEvents=1;shape=mxgraph.aws4.encrypted_data;labelBackgroundColor=#ffffff;" parent="jZVaUwOg5UY3L9NAnvdq-182" vertex="1">
          <mxGeometry width="21" height="26" as="geometry" />
        </mxCell>
        <mxCell id="jZVaUwOg5UY3L9NAnvdq-185" value="" style="group" parent="1" vertex="1" connectable="0">
          <mxGeometry x="1350" y="581.5" width="21" height="26" as="geometry" />
        </mxCell>
        <mxCell id="jZVaUwOg5UY3L9NAnvdq-186" value="" style="rounded=0;whiteSpace=wrap;html=1;labelBackgroundColor=#ffffff;fontSize=14;align=center;strokeColor=none;" parent="jZVaUwOg5UY3L9NAnvdq-185" vertex="1">
          <mxGeometry width="21" height="26" as="geometry" />
        </mxCell>
        <mxCell id="jZVaUwOg5UY3L9NAnvdq-187" value="" style="outlineConnect=0;fontColor=#232F3E;gradientColor=none;fillColor=#B3B3B3;strokeColor=none;dashed=0;verticalLabelPosition=bottom;verticalAlign=top;align=center;html=1;fontSize=12;fontStyle=0;aspect=fixed;pointerEvents=1;shape=mxgraph.aws4.encrypted_data;labelBackgroundColor=#ffffff;" parent="jZVaUwOg5UY3L9NAnvdq-185" vertex="1">
          <mxGeometry width="21" height="26" as="geometry" />
        </mxCell>
        <mxCell id="jZVaUwOg5UY3L9NAnvdq-188" value="" style="group" parent="1" vertex="1" connectable="0">
          <mxGeometry x="1350" y="672" width="21" height="26" as="geometry" />
        </mxCell>
        <mxCell id="jZVaUwOg5UY3L9NAnvdq-189" value="" style="rounded=0;whiteSpace=wrap;html=1;labelBackgroundColor=#ffffff;fontSize=14;align=center;strokeColor=none;" parent="jZVaUwOg5UY3L9NAnvdq-188" vertex="1">
          <mxGeometry width="21" height="26" as="geometry" />
        </mxCell>
        <mxCell id="jZVaUwOg5UY3L9NAnvdq-190" value="" style="outlineConnect=0;fontColor=#232F3E;gradientColor=none;fillColor=#B3B3B3;strokeColor=none;dashed=0;verticalLabelPosition=bottom;verticalAlign=top;align=center;html=1;fontSize=12;fontStyle=0;aspect=fixed;pointerEvents=1;shape=mxgraph.aws4.encrypted_data;labelBackgroundColor=#ffffff;" parent="jZVaUwOg5UY3L9NAnvdq-188" vertex="1">
          <mxGeometry width="21" height="26" as="geometry" />
        </mxCell>
        <mxCell id="jZVaUwOg5UY3L9NAnvdq-109" style="edgeStyle=elbowEdgeStyle;rounded=0;orthogonalLoop=1;jettySize=auto;html=1;endArrow=open;endFill=0;strokeColor=#545B64;strokeWidth=2;fontSize=14;entryX=0;entryY=0.5;entryDx=0;entryDy=0;entryPerimeter=0;exitX=1.011;exitY=0.562;exitDx=0;exitDy=0;exitPerimeter=0;" parent="1" target="tJ3CRfDnOJXeIH4iDhJY-23" edge="1" source="tJ3CRfDnOJXeIH4iDhJY-6">
          <mxGeometry relative="1" as="geometry">
            <mxPoint x="240" y="382" as="sourcePoint" />
            <Array as="points" />
            <mxPoint x="339" y="280" as="targetPoint" />
          </mxGeometry>
        </mxCell>
        <mxCell id="tJ3CRfDnOJXeIH4iDhJY-26" style="edgeStyle=elbowEdgeStyle;rounded=0;orthogonalLoop=1;jettySize=auto;html=1;endArrow=open;endFill=0;strokeColor=#545B64;strokeWidth=2;fontSize=14;entryX=0;entryY=0.5;entryDx=0;entryDy=0;entryPerimeter=0;" edge="1" parent="1" target="tJ3CRfDnOJXeIH4iDhJY-20">
          <mxGeometry relative="1" as="geometry">
            <mxPoint x="150" y="287" as="sourcePoint" />
            <Array as="points">
              <mxPoint x="250" y="285" />
            </Array>
            <mxPoint x="310" y="287" as="targetPoint" />
          </mxGeometry>
        </mxCell>
        <mxCell id="tJ3CRfDnOJXeIH4iDhJY-30" value="" style="endArrow=none;dashed=1;html=1;rounded=0;" edge="1" parent="1">
          <mxGeometry width="50" height="50" relative="1" as="geometry">
            <mxPoint x="61" y="551" as="sourcePoint" />
            <mxPoint x="60" y="342" as="targetPoint" />
          </mxGeometry>
        </mxCell>
        <mxCell id="tJ3CRfDnOJXeIH4iDhJY-31" value="" style="endArrow=none;dashed=1;html=1;rounded=0;" edge="1" parent="1">
          <mxGeometry width="50" height="50" relative="1" as="geometry">
            <mxPoint x="61" y="341" as="sourcePoint" />
            <mxPoint x="211" y="341" as="targetPoint" />
          </mxGeometry>
        </mxCell>
        <mxCell id="tJ3CRfDnOJXeIH4iDhJY-32" value="" style="endArrow=none;dashed=1;html=1;rounded=0;" edge="1" parent="1">
          <mxGeometry width="50" height="50" relative="1" as="geometry">
            <mxPoint x="211" y="551" as="sourcePoint" />
            <mxPoint x="211" y="341" as="targetPoint" />
          </mxGeometry>
        </mxCell>
        <mxCell id="tJ3CRfDnOJXeIH4iDhJY-33" value="" style="endArrow=none;dashed=1;html=1;rounded=0;" edge="1" parent="1">
          <mxGeometry width="50" height="50" relative="1" as="geometry">
            <mxPoint x="61" y="551" as="sourcePoint" />
            <mxPoint x="211" y="551" as="targetPoint" />
          </mxGeometry>
        </mxCell>
        <mxCell id="jZVaUwOg5UY3L9NAnvdq-158" style="edgeStyle=elbowEdgeStyle;rounded=0;orthogonalLoop=1;jettySize=auto;html=1;endArrow=open;endFill=0;strokeColor=#545B64;strokeWidth=2;fontSize=14;entryX=0;entryY=0.5;entryDx=0;entryDy=0;entryPerimeter=0;" parent="1" target="tJ3CRfDnOJXeIH4iDhJY-34" edge="1">
          <mxGeometry relative="1" as="geometry">
            <mxPoint x="210" y="440" as="sourcePoint" />
            <mxPoint x="349" y="261" as="targetPoint" />
            <Array as="points" />
          </mxGeometry>
        </mxCell>
        <mxCell id="tJ3CRfDnOJXeIH4iDhJY-38" value="" style="endArrow=none;dashed=1;html=1;rounded=0;" edge="1" parent="1">
          <mxGeometry width="50" height="50" relative="1" as="geometry">
            <mxPoint x="58" y="860" as="sourcePoint" />
            <mxPoint x="58" y="669" as="targetPoint" />
          </mxGeometry>
        </mxCell>
        <mxCell id="tJ3CRfDnOJXeIH4iDhJY-39" value="" style="endArrow=none;dashed=1;html=1;rounded=0;" edge="1" parent="1">
          <mxGeometry width="50" height="50" relative="1" as="geometry">
            <mxPoint x="59" y="668" as="sourcePoint" />
            <mxPoint x="209" y="668" as="targetPoint" />
          </mxGeometry>
        </mxCell>
        <mxCell id="tJ3CRfDnOJXeIH4iDhJY-40" value="" style="endArrow=none;dashed=1;html=1;rounded=0;" edge="1" parent="1">
          <mxGeometry width="50" height="50" relative="1" as="geometry">
            <mxPoint x="209" y="860" as="sourcePoint" />
            <mxPoint x="209" y="668" as="targetPoint" />
          </mxGeometry>
        </mxCell>
        <mxCell id="tJ3CRfDnOJXeIH4iDhJY-41" value="" style="endArrow=none;dashed=1;html=1;rounded=0;" edge="1" parent="1">
          <mxGeometry width="50" height="50" relative="1" as="geometry">
            <mxPoint x="59" y="857" as="sourcePoint" />
            <mxPoint x="209" y="857" as="targetPoint" />
            <Array as="points">
              <mxPoint x="140" y="857" />
            </Array>
          </mxGeometry>
        </mxCell>
        <mxCell id="tJ3CRfDnOJXeIH4iDhJY-44" style="edgeStyle=elbowEdgeStyle;rounded=0;orthogonalLoop=1;jettySize=auto;html=1;endArrow=open;endFill=0;strokeColor=#545B64;strokeWidth=2;fontSize=14;exitX=0.998;exitY=0.54;exitDx=0;exitDy=0;exitPerimeter=0;" edge="1" parent="1" source="tJ3CRfDnOJXeIH4iDhJY-12">
          <mxGeometry relative="1" as="geometry">
            <mxPoint x="205" y="603" as="sourcePoint" />
            <mxPoint x="330" y="601" as="targetPoint" />
            <Array as="points">
              <mxPoint x="280" y="591" />
            </Array>
          </mxGeometry>
        </mxCell>
        <mxCell id="tJ3CRfDnOJXeIH4iDhJY-59" value="&lt;span style=&quot;color: rgb(0, 0, 0); font-family: Helvetica; font-size: 14px; font-style: normal; font-variant-ligatures: normal; font-variant-caps: normal; font-weight: 700; letter-spacing: normal; orphans: 2; text-align: center; text-indent: 0px; text-transform: none; widows: 2; word-spacing: 0px; -webkit-text-stroke-width: 0px; white-space: nowrap; background-color: rgb(251, 251, 251); text-decoration-thickness: initial; text-decoration-style: initial; text-decoration-color: initial; display: inline !important; float: none;&quot;&gt;Scalable Data Lake&lt;/span&gt;" style="text;whiteSpace=wrap;html=1;" vertex="1" parent="1">
          <mxGeometry x="680" y="139" width="129" height="40" as="geometry" />
        </mxCell>
        <mxCell id="jZVaUwOg5UY3L9NAnvdq-138" value="" style="edgeStyle=elbowEdgeStyle;rounded=0;orthogonalLoop=1;jettySize=auto;html=1;endArrow=open;endFill=0;strokeColor=#545B64;strokeWidth=2;fontSize=14;elbow=vertical;" parent="1" edge="1">
          <mxGeometry relative="1" as="geometry">
            <mxPoint x="327" y="698" as="targetPoint" />
            <mxPoint x="210" y="698" as="sourcePoint" />
          </mxGeometry>
        </mxCell>
        <mxCell id="tJ3CRfDnOJXeIH4iDhJY-67" value="" style="endArrow=none;dashed=1;html=1;rounded=0;" edge="1" parent="1">
          <mxGeometry width="50" height="50" relative="1" as="geometry">
            <mxPoint x="549" y="780" as="sourcePoint" />
            <mxPoint x="548.8199999999999" y="449" as="targetPoint" />
          </mxGeometry>
        </mxCell>
        <mxCell id="tJ3CRfDnOJXeIH4iDhJY-68" value="" style="endArrow=none;dashed=1;html=1;rounded=0;" edge="1" parent="1">
          <mxGeometry width="50" height="50" relative="1" as="geometry">
            <mxPoint x="549.8199999999999" y="448" as="sourcePoint" />
            <mxPoint x="941" y="448" as="targetPoint" />
          </mxGeometry>
        </mxCell>
        <mxCell id="tJ3CRfDnOJXeIH4iDhJY-69" value="" style="endArrow=none;dashed=1;html=1;rounded=0;" edge="1" parent="1">
          <mxGeometry width="50" height="50" relative="1" as="geometry">
            <mxPoint x="940" y="780" as="sourcePoint" />
            <mxPoint x="940.8199999999999" y="448" as="targetPoint" />
          </mxGeometry>
        </mxCell>
        <mxCell id="tJ3CRfDnOJXeIH4iDhJY-70" value="" style="endArrow=none;dashed=1;html=1;rounded=0;" edge="1" parent="1">
          <mxGeometry width="50" height="50" relative="1" as="geometry">
            <mxPoint x="549.8199999999999" y="782" as="sourcePoint" />
            <mxPoint x="941" y="782" as="targetPoint" />
          </mxGeometry>
        </mxCell>
        <mxCell id="tJ3CRfDnOJXeIH4iDhJY-85" value="AWS VPC" style="text;html=1;align=center;verticalAlign=middle;resizable=0;points=[];autosize=1;strokeColor=none;fillColor=none;" vertex="1" parent="1">
          <mxGeometry x="360" y="898" width="80" height="30" as="geometry" />
        </mxCell>
        <mxCell id="tJ3CRfDnOJXeIH4iDhJY-89" value="Lake Formation" style="text;html=1;align=center;verticalAlign=middle;resizable=0;points=[];autosize=1;strokeColor=none;fillColor=none;" vertex="1" parent="1">
          <mxGeometry x="671" y="898" width="110" height="30" as="geometry" />
        </mxCell>
        <mxCell id="tJ3CRfDnOJXeIH4iDhJY-121" value="" style="image;aspect=fixed;html=1;points=[];align=center;fontSize=12;image=img/lib/azure2/analytics/Power_BI_Embedded.svg;" vertex="1" parent="1">
          <mxGeometry x="1456" y="687" width="51" height="68" as="geometry" />
        </mxCell>
        <mxCell id="tJ3CRfDnOJXeIH4iDhJY-122" value="Power BI" style="text;html=1;align=center;verticalAlign=middle;resizable=0;points=[];autosize=1;strokeColor=none;fillColor=none;" vertex="1" parent="1">
          <mxGeometry x="1442" y="757" width="70" height="30" as="geometry" />
        </mxCell>
        <mxCell id="tJ3CRfDnOJXeIH4iDhJY-123" value="" style="edgeStyle=elbowEdgeStyle;rounded=0;orthogonalLoop=1;jettySize=auto;html=1;endArrow=open;endFill=0;strokeColor=#545B64;strokeWidth=2;fontSize=14;" edge="1" parent="1">
          <mxGeometry relative="1" as="geometry">
            <mxPoint x="1481" y="670" as="sourcePoint" />
            <mxPoint x="1480.5" y="596.5" as="targetPoint" />
          </mxGeometry>
        </mxCell>
        <mxCell id="tJ3CRfDnOJXeIH4iDhJY-126" value="" style="edgeStyle=elbowEdgeStyle;rounded=0;orthogonalLoop=1;jettySize=auto;html=1;endArrow=open;endFill=0;strokeColor=#545B64;strokeWidth=2;fontSize=14;elbow=vertical;" edge="1" parent="1">
          <mxGeometry relative="1" as="geometry">
            <mxPoint x="997" y="258" as="targetPoint" />
            <mxPoint x="947" y="257.5" as="sourcePoint" />
          </mxGeometry>
        </mxCell>
        <mxCell id="jZVaUwOg5UY3L9NAnvdq-106" value="7" style="rounded=1;whiteSpace=wrap;html=1;fillColor=#007CBD;strokeColor=none;fontColor=#FFFFFF;fontStyle=1;fontSize=22;labelBackgroundColor=none;" parent="1" vertex="1">
          <mxGeometry x="1460" y="790" width="40" height="38" as="geometry" />
        </mxCell>
      </root>
    </mxGraphModel>
  </diagram>
</mxfile>
